<svg xmlns="http://www.w3.org/2000/svg" xmlns:xlink="http://www.w3.org/1999/xlink" version="1.2" baseProfile="tiny" x="0px" y="0px" viewBox="0 0 100 125" xml:space="preserve"><path d="M92.5,42.5H35V40c0-1.381-1.119-2.5-2.5-2.5h-10c-1.381,0-2.5,1.119-2.5,2.5v2.5H7.5C6.119,42.5,5,43.619,5,45v10  c0,1.381,1.119,2.5,2.5,2.5H20V60c0,1.381,1.119,2.5,2.5,2.5h10c1.381,0,2.5-1.119,2.5-2.5v-2.5h57.5c1.381,0,2.5-1.119,2.5-2.5V45  C95,43.619,93.881,42.5,92.5,42.5z M20,52.5H10v-5h10V52.5z M30,57.5h-5v-15h5V57.5z M90,52.5H35v-5h55V52.5z"/><path d="M92.5,17.5H75V15c0-1.381-1.119-2.5-2.5-2.5h-10c-1.381,0-2.5,1.119-2.5,2.5v2.5H7.5C6.119,17.5,5,18.619,5,20v10  c0,1.381,1.119,2.5,2.5,2.5H60V35c0,1.381,1.119,2.5,2.5,2.5h10c1.381,0,2.5-1.119,2.5-2.5v-2.5h17.5c1.381,0,2.5-1.119,2.5-2.5V20  C95,18.619,93.881,17.5,92.5,17.5z M60,27.5H10v-5h50V27.5z M70,32.5h-5v-15h5V32.5z M90,27.5H75v-5h15V27.5z"/><path d="M92.5,67.5H55V65c0-1.381-1.119-2.5-2.5-2.5h-10c-1.381,0-2.5,1.119-2.5,2.5v2.5H7.5C6.119,67.5,5,68.619,5,70v10  c0,1.381,1.119,2.5,2.5,2.5H40V85c0,1.381,1.119,2.5,2.5,2.5h10c1.381,0,2.5-1.119,2.5-2.5v-2.5h37.5c1.381,0,2.5-1.119,2.5-2.5V70  C95,68.619,93.881,67.5,92.5,67.5z M40,77.5H10v-5h30V77.5z M50,82.5h-5v-15h5V82.5z M90,77.5H55v-5h35V77.5z"/><text x="0" y="115" fill="#000000" font-size="5px" font-weight="bold" font-family="'Helvetica Neue', Helvetica, Arial-Unicode, Arial, Sans-serif">Created by Arthur Shlain</text><text x="0" y="120" fill="#000000" font-size="5px" font-weight="bold" font-family="'Helvetica Neue', Helvetica, Arial-Unicode, Arial, Sans-serif">from the Noun Project</text></svg>