<svg xmlns="http://www.w3.org/2000/svg" xmlns:xlink="http://www.w3.org/1999/xlink" version="1.1" x="0px" y="0px" viewBox="0 0 512 640" enable-background="new 0 0 512 512" xml:space="preserve"><g><g><g><g><path d="M380.233,219.994c-2.203,0-4.039-1.789-4.039-4s1.75-4,3.961-4h0.078c2.211,0,4,1.789,4,4      S382.444,219.994,380.233,219.994z"/></g></g></g><g><g><g><path d="M404.232,203.994c-2.203,0-4.039-1.789-4.039-4s1.75-4,3.961-4h0.078c2.211,0,4,1.789,4,4      S406.443,203.994,404.232,203.994z"/></g></g></g><g><g><g><g><path d="M292.233,339.997c-2.203,0-4.039-1.797-4.039-3.999c0-2.219,1.75-4,3.961-4h0.078c2.211,0,4,1.781,4,4       C296.233,338.2,294.444,339.997,292.233,339.997z"/></g></g></g><g><g><g><path d="M300.233,331.998c-2.203,0-4.039-1.797-4.039-4c0-2.219,1.75-4,3.961-4h0.078c2.211,0,4,1.781,4,4       C304.233,330.201,302.444,331.998,300.233,331.998z"/></g></g></g><g><g><g><path d="M316.233,331.998c-2.203,0-4.039-1.797-4.039-4c0-2.219,1.75-4,3.961-4h0.078c2.211,0,4,1.781,4,4       C320.233,330.201,318.444,331.998,316.233,331.998z"/></g></g></g><g><g><g><path d="M308.233,323.998c-2.203,0-4.039-1.797-4.039-4c0-2.219,1.75-4,3.961-4h0.078c2.211,0,4,1.781,4,4       C312.233,322.201,310.444,323.998,308.233,323.998z"/></g></g></g><g><g><g><path d="M308.233,339.997c-2.203,0-4.039-1.797-4.039-3.999c0-2.219,1.75-4,3.961-4h0.078c2.211,0,4,1.781,4,4       C312.233,338.2,310.444,339.997,308.233,339.997z"/></g></g></g><g><g><g><path d="M324.233,339.997c-2.203,0-4.039-1.797-4.039-3.999c0-2.219,1.75-4,3.961-4h0.078c2.211,0,4,1.781,4,4       C328.233,338.2,326.444,339.997,324.233,339.997z"/></g></g></g><g><g><g><path d="M383.991,267.998c-0.219,0-0.438-0.016-0.664-0.062c-2.172-0.359-3.648-2.422-3.281-4.598       c1.906-11.438,19.64-20.578,44.179-33.227c33.531-17.281,75.258-38.793,79.812-70.683c0.312-2.188,2.336-3.707,4.523-3.395       s3.711,2.34,3.398,4.527c-5.141,35.976-48.906,58.535-84.07,76.66c-19.031,9.809-38.702,19.953-39.952,27.434       C387.608,266.607,385.913,267.998,383.991,267.998z"/></g></g></g><g><g><g><path d="M231.999,267.998c-1.922,0-3.613-1.391-3.941-3.344c-1.25-7.48-20.926-17.625-39.957-27.434       c-35.164-18.125-78.925-40.684-84.065-76.66c-0.312-2.188,1.207-4.215,3.395-4.527c2.168-0.344,4.211,1.207,4.527,3.395       c4.555,31.89,46.281,53.402,79.812,70.683c24.539,12.648,42.27,21.789,44.18,33.227c0.363,2.176-1.109,4.238-3.285,4.598       C232.44,267.982,232.218,267.998,231.999,267.998z"/></g></g></g><g><g><g><path d="M307.999,355.997c-66.723,0-79.836-90.546-79.961-91.468c-0.297-2.184,1.234-4.199,3.422-4.496       c2.168-0.289,4.203,1.227,4.508,3.422c0.113,0.84,12.293,84.542,72.031,84.542c59.734,0,71.914-83.702,72.023-84.542       c0.305-2.188,2.328-3.699,4.508-3.422c2.188,0.297,3.719,2.312,3.422,4.496C387.827,265.451,374.718,355.997,307.999,355.997z"/></g></g></g><g><g><g><path d="M371.999,259.994H243.995c-2.211,0-4-1.789-4-4s1.789-4,4-4h128.004c2.211,0,4,1.789,4,4       S374.21,259.994,371.999,259.994z"/></g></g></g><g><g><g><path d="M507.998,139.995H107.996c-2.211,0-4-1.789-4-4s1.789-4,4-4h400.002c2.211,0,4,1.789,4,4       S510.209,139.995,507.998,139.995z"/></g></g></g><g><g><g><path d="M107.996,163.995c-2.211,0-4-1.789-4-4v-24c0-2.211,1.789-4,4-4s4,1.789,4,4v24       C111.996,162.206,110.207,163.995,107.996,163.995z"/></g></g></g><g><g><g><path d="M507.998,163.995c-2.211,0-4-1.789-4-4v-24c0-2.211,1.789-4,4-4s4,1.789,4,4v24       C511.998,162.206,510.209,163.995,507.998,163.995z"/></g></g></g><g><g><g><path d="M483.998,179.995H131.996c-2.211,0-4-1.789-4-4s1.789-4,4-4h352.002c2.211,0,4,1.789,4,4       S486.209,179.995,483.998,179.995z"/></g></g></g><g><g><g><path d="M299.999,483.997c-2.211,0-4-1.797-4-4v-120c0-2.219,1.789-4,4-4s4,1.781,4,4v120       C303.999,482.2,302.21,483.997,299.999,483.997z"/></g></g></g><g><g><g><path d="M315.999,483.997c-2.211,0-4-1.797-4-4v-120c0-2.219,1.789-4,4-4s4,1.781,4,4v120       C319.999,482.2,318.21,483.997,315.999,483.997z"/></g></g></g><g><g><g><path d="M411.998,499.997H203.995c-2.211,0-4-1.797-4-4c0-2.219,1.789-4,4-4h208.003c2.211,0,4,1.781,4,4       C415.998,498.2,414.209,499.997,411.998,499.997z"/></g></g></g><g><g><g><path d="M355.999,499.997c-0.5,0-1-0.094-1.484-0.297l-40-16c-2.055-0.812-3.055-3.141-2.234-5.188       c0.82-2.062,3.172-3.062,5.203-2.234l40,16c2.047,0.828,3.047,3.156,2.227,5.203       C359.085,499.044,357.585,499.997,355.999,499.997z"/></g></g></g><g><g><g><path d="M259.995,499.997c-1.586,0-3.09-0.953-3.715-2.516c-0.82-2.047,0.18-4.375,2.23-5.203l40.004-16       c2.039-0.812,4.375,0.172,5.195,2.234c0.82,2.047-0.18,4.375-2.227,5.188l-40.004,16       C260.995,499.903,260.491,499.997,259.995,499.997z"/></g></g></g><g><g><g><path d="M139.996,163.995c-1.023,0-2.047-0.391-2.828-1.172l-8-8c-1.562-1.562-1.562-4.094,0-5.656       c1.562-1.562,4.094-1.562,5.656,0l8,8c1.562,1.562,1.562,4.094,0,5.656C142.042,163.604,141.019,163.995,139.996,163.995z"/></g></g></g><g><g><g><path d="M139.996,163.995c-1.023,0-2.047-0.391-2.828-1.172c-1.562-1.562-1.562-4.094,0-5.656l8-8       c1.562-1.562,4.094-1.562,5.656,0s1.562,4.094,0,5.656l-8,8C142.042,163.604,141.019,163.995,139.996,163.995z"/></g></g></g><g><g><g><path d="M155.996,163.995c-1.023,0-2.047-0.391-2.828-1.172l-8-8c-1.562-1.562-1.562-4.094,0-5.656s4.094-1.562,5.656,0l8,8       c1.562,1.562,1.562,4.094,0,5.656C158.042,163.604,157.019,163.995,155.996,163.995z"/></g></g></g><g><g><g><path d="M155.996,163.995c-1.023,0-2.047-0.391-2.828-1.172c-1.562-1.562-1.562-4.094,0-5.656l8-8       c1.562-1.562,4.094-1.562,5.656,0s1.562,4.094,0,5.656l-8,8C158.042,163.604,157.019,163.995,155.996,163.995z"/></g></g></g><g><g><g><path d="M171.996,163.995c-1.023,0-2.047-0.391-2.828-1.172l-8-8c-1.562-1.562-1.562-4.094,0-5.656s4.094-1.562,5.656,0l8,8       c1.562,1.562,1.562,4.094,0,5.656C174.042,163.604,173.019,163.995,171.996,163.995z"/></g></g></g><g><g><g><path d="M171.996,163.995c-1.023,0-2.047-0.391-2.828-1.172c-1.562-1.562-1.562-4.094,0-5.656l8-8       c1.562-1.562,4.093-1.562,5.656,0s1.562,4.094,0,5.656l-8,8C174.042,163.604,173.019,163.995,171.996,163.995z"/></g></g></g><g><g><g><path d="M187.995,163.995c-1.023,0-2.047-0.391-2.828-1.172l-8-8c-1.562-1.562-1.562-4.094,0-5.656s4.093-1.562,5.656,0l8,8       c1.562,1.562,1.562,4.094,0,5.656C190.042,163.604,189.019,163.995,187.995,163.995z"/></g></g></g><g><g><g><path d="M187.995,163.995c-1.023,0-2.047-0.391-2.828-1.172c-1.562-1.562-1.562-4.094,0-5.656l8-8       c1.562-1.562,4.094-1.562,5.656,0s1.562,4.094,0,5.656l-8,8C190.042,163.604,189.019,163.995,187.995,163.995z"/></g></g></g><g><g><g><path d="M203.995,163.995c-1.023,0-2.047-0.391-2.828-1.172l-8-8c-1.562-1.562-1.562-4.094,0-5.656s4.094-1.562,5.656,0l8,8       c1.562,1.562,1.562,4.094,0,5.656C206.042,163.604,205.019,163.995,203.995,163.995z"/></g></g></g><g><g><g><path d="M203.995,163.995c-1.023,0-2.047-0.391-2.828-1.172c-1.562-1.562-1.562-4.094,0-5.656l8-8       c1.562-1.562,4.094-1.562,5.656,0s1.562,4.094,0,5.656l-8,8C206.042,163.604,205.019,163.995,203.995,163.995z"/></g></g></g><g><g><g><path d="M219.995,163.995c-1.023,0-2.047-0.391-2.828-1.172l-8-8c-1.562-1.562-1.562-4.094,0-5.656s4.094-1.562,5.656,0l8,8       c1.562,1.562,1.562,4.094,0,5.656C222.042,163.604,221.019,163.995,219.995,163.995z"/></g></g></g><g><g><g><path d="M219.995,163.995c-1.023,0-2.047-0.391-2.828-1.172c-1.562-1.562-1.562-4.094,0-5.656l8-8       c1.562-1.562,4.094-1.562,5.656,0s1.562,4.094,0,5.656l-8,8C222.042,163.604,221.019,163.995,219.995,163.995z"/></g></g></g><g><g><g><path d="M235.995,163.995c-1.023,0-2.047-0.391-2.828-1.172l-8-8c-1.562-1.562-1.562-4.094,0-5.656s4.094-1.562,5.656,0l8,8       c1.562,1.562,1.562,4.094,0,5.656C238.042,163.604,237.019,163.995,235.995,163.995z"/></g></g></g><g><g><g><path d="M235.995,163.995c-1.023,0-2.047-0.391-2.828-1.172c-1.562-1.562-1.562-4.094,0-5.656l8-8       c1.562-1.562,4.094-1.562,5.656,0s1.562,4.094,0,5.656l-8,8C238.042,163.604,237.019,163.995,235.995,163.995z"/></g></g></g><g><g><g><path d="M251.995,163.995c-1.023,0-2.047-0.391-2.828-1.172l-8-8c-1.562-1.562-1.562-4.094,0-5.656s4.094-1.562,5.656,0l8,8       c1.562,1.562,1.562,4.094,0,5.656C254.042,163.604,253.019,163.995,251.995,163.995z"/></g></g></g><g><g><g><path d="M251.995,163.995c-1.023,0-2.047-0.391-2.828-1.172c-1.562-1.562-1.562-4.094,0-5.656l8-8       c1.562-1.562,4.094-1.562,5.656,0c1.566,1.562,1.566,4.094,0,5.656l-8,8C254.042,163.604,253.019,163.995,251.995,163.995z"/></g></g></g><g><g><g><path d="M267.999,163.995c-1.023,0-2.047-0.391-2.828-1.172l-8.004-8c-1.562-1.562-1.562-4.094,0-5.656s4.094-1.562,5.656,0       l8.004,8c1.562,1.562,1.562,4.094,0,5.656C270.046,163.604,269.022,163.995,267.999,163.995z"/></g></g></g><g><g><g><path d="M267.999,163.995c-1.023,0-2.047-0.391-2.828-1.172c-1.566-1.562-1.566-4.094,0-5.656l8-8       c1.562-1.562,4.094-1.562,5.656,0s1.562,4.094,0,5.656l-8,8C270.046,163.604,269.022,163.995,267.999,163.995z"/></g></g></g><g><g><g><path d="M283.999,163.995c-1.023,0-2.047-0.391-2.828-1.172l-8-8c-1.562-1.562-1.562-4.094,0-5.656s4.094-1.562,5.656,0l8,8       c1.562,1.562,1.562,4.094,0,5.656C286.046,163.604,285.022,163.995,283.999,163.995z"/></g></g></g><g><g><g><path d="M283.999,163.995c-1.023,0-2.047-0.391-2.828-1.172c-1.562-1.562-1.562-4.094,0-5.656l8-8       c1.562-1.562,4.094-1.562,5.656,0s1.562,4.094,0,5.656l-8,8C286.046,163.604,285.022,163.995,283.999,163.995z"/></g></g></g><g><g><g><path d="M299.999,163.995c-1.023,0-2.047-0.391-2.828-1.172l-8-8c-1.562-1.562-1.562-4.094,0-5.656s4.094-1.562,5.656,0l8,8       c1.562,1.562,1.562,4.094,0,5.656C302.046,163.604,301.022,163.995,299.999,163.995z"/></g></g></g><g><g><g><path d="M299.999,163.995c-1.023,0-2.047-0.391-2.828-1.172c-1.562-1.562-1.562-4.094,0-5.656l8-8       c1.562-1.562,4.094-1.562,5.656,0s1.562,4.094,0,5.656l-8,8C302.046,163.604,301.022,163.995,299.999,163.995z"/></g></g></g><g><g><g><path d="M315.999,163.995c-1.023,0-2.047-0.391-2.828-1.172l-8-8c-1.562-1.562-1.562-4.094,0-5.656s4.094-1.562,5.656,0l8,8       c1.562,1.562,1.562,4.094,0,5.656C318.046,163.604,317.022,163.995,315.999,163.995z"/></g></g></g><g><g><g><path d="M315.999,163.995c-1.023,0-2.047-0.391-2.828-1.172c-1.562-1.562-1.562-4.094,0-5.656l8-8       c1.562-1.562,4.094-1.562,5.656,0s1.562,4.094,0,5.656l-8,8C318.046,163.604,317.022,163.995,315.999,163.995z"/></g></g></g><g><g><g><path d="M331.999,163.995c-1.023,0-2.047-0.391-2.828-1.172l-8-8c-1.562-1.562-1.562-4.094,0-5.656s4.094-1.562,5.656,0l8,8       c1.562,1.562,1.562,4.094,0,5.656C334.046,163.604,333.022,163.995,331.999,163.995z"/></g></g></g><g><g><g><path d="M331.999,163.995c-1.023,0-2.047-0.391-2.828-1.172c-1.562-1.562-1.562-4.094,0-5.656l8-8       c1.562-1.562,4.094-1.562,5.656,0s1.562,4.094,0,5.656l-8,8C334.046,163.604,333.022,163.995,331.999,163.995z"/></g></g></g><g><g><g><path d="M347.999,163.995c-1.023,0-2.047-0.391-2.828-1.172l-8-8c-1.562-1.562-1.562-4.094,0-5.656s4.094-1.562,5.656,0l8,8       c1.562,1.562,1.562,4.094,0,5.656C350.046,163.604,349.022,163.995,347.999,163.995z"/></g></g></g><g><g><g><path d="M347.999,163.995c-1.023,0-2.047-0.391-2.828-1.172c-1.562-1.562-1.562-4.094,0-5.656l8-8       c1.562-1.562,4.094-1.562,5.656,0s1.562,4.094,0,5.656l-8,8C350.046,163.604,349.022,163.995,347.999,163.995z"/></g></g></g><g><g><g><path d="M363.999,163.995c-1.023,0-2.047-0.391-2.828-1.172l-8-8c-1.562-1.562-1.562-4.094,0-5.656s4.094-1.562,5.656,0l8,8       c1.562,1.562,1.562,4.094,0,5.656C366.046,163.604,365.022,163.995,363.999,163.995z"/></g></g></g><g><g><g><path d="M363.999,163.995c-1.023,0-2.047-0.391-2.828-1.172c-1.562-1.562-1.562-4.094,0-5.656l8-8       c1.562-1.562,4.094-1.562,5.656,0s1.562,4.094,0,5.656l-8,8C366.046,163.604,365.022,163.995,363.999,163.995z"/></g></g></g><g><g><g><path d="M379.999,163.995c-1.023,0-2.047-0.391-2.828-1.172l-8-8c-1.562-1.562-1.562-4.094,0-5.656s4.094-1.562,5.656,0l8,8       c1.562,1.562,1.562,4.094,0,5.656C382.046,163.604,381.022,163.995,379.999,163.995z"/></g></g></g><g><g><g><path d="M379.999,163.995c-1.023,0-2.047-0.391-2.828-1.172c-1.562-1.562-1.562-4.094,0-5.656l8-8       c1.562-1.562,4.094-1.562,5.655,0c1.562,1.562,1.562,4.094,0,5.656l-7.999,8C382.046,163.604,381.022,163.995,379.999,163.995z       "/></g></g></g><g><g><g><path d="M395.998,163.995c-1.023,0-2.047-0.391-2.828-1.172l-7.999-8c-1.562-1.562-1.562-4.094,0-5.656s4.094-1.562,5.655,0       l8,8c1.562,1.562,1.562,4.094,0,5.656C398.045,163.604,397.021,163.995,395.998,163.995z"/></g></g></g><g><g><g><path d="M395.998,163.995c-1.023,0-2.047-0.391-2.828-1.172c-1.562-1.562-1.562-4.094,0-5.656l8-8       c1.562-1.562,4.094-1.562,5.656,0s1.562,4.094,0,5.656l-8,8C398.045,163.604,397.021,163.995,395.998,163.995z"/></g></g></g><g><g><g><path d="M411.998,163.995c-1.023,0-2.047-0.391-2.828-1.172l-8-8c-1.562-1.562-1.562-4.094,0-5.656s4.094-1.562,5.656,0l8,8       c1.562,1.562,1.562,4.094,0,5.656C414.045,163.604,413.021,163.995,411.998,163.995z"/></g></g></g><g><g><g><path d="M411.998,163.995c-1.023,0-2.047-0.391-2.828-1.172c-1.562-1.562-1.562-4.094,0-5.656l8-8       c1.562-1.562,4.094-1.562,5.656,0s1.562,4.094,0,5.656l-8,8C414.045,163.604,413.021,163.995,411.998,163.995z"/></g></g></g><g><g><g><path d="M427.998,163.995c-1.023,0-2.047-0.391-2.828-1.172l-8-8c-1.562-1.562-1.562-4.094,0-5.656s4.094-1.562,5.656,0l8,8       c1.562,1.562,1.562,4.094,0,5.656C430.045,163.604,429.021,163.995,427.998,163.995z"/></g></g></g><g><g><g><path d="M427.998,163.995c-1.023,0-2.047-0.391-2.828-1.172c-1.562-1.562-1.562-4.094,0-5.656l8-8       c1.562-1.562,4.094-1.562,5.656,0s1.562,4.094,0,5.656l-8,8C430.045,163.604,429.021,163.995,427.998,163.995z"/></g></g></g><g><g><g><path d="M443.998,163.995c-1.023,0-2.047-0.391-2.828-1.172l-8-8c-1.562-1.562-1.562-4.094,0-5.656s4.094-1.562,5.656,0l8,8       c1.562,1.562,1.562,4.094,0,5.656C446.045,163.604,445.021,163.995,443.998,163.995z"/></g></g></g><g><g><g><path d="M443.998,163.995c-1.023,0-2.047-0.391-2.828-1.172c-1.562-1.562-1.562-4.094,0-5.656l8-8       c1.562-1.562,4.094-1.562,5.656,0s1.562,4.094,0,5.656l-8,8C446.045,163.604,445.021,163.995,443.998,163.995z"/></g></g></g><g><g><g><path d="M459.998,163.995c-1.023,0-2.047-0.391-2.828-1.172l-8-8c-1.562-1.562-1.562-4.094,0-5.656s4.094-1.562,5.656,0l8,8       c1.562,1.562,1.562,4.094,0,5.656C462.045,163.604,461.021,163.995,459.998,163.995z"/></g></g></g><g><g><g><path d="M459.998,163.995c-1.023,0-2.047-0.391-2.828-1.172c-1.562-1.562-1.562-4.094,0-5.656l8-8       c1.562-1.562,4.094-1.562,5.656,0s1.562,4.094,0,5.656l-8,8C462.045,163.604,461.021,163.995,459.998,163.995z"/></g></g></g><g><g><g><path d="M475.998,163.995c-1.023,0-2.047-0.391-2.828-1.172l-8-8c-1.562-1.562-1.562-4.094,0-5.656s4.094-1.562,5.656,0l8,8       c1.562,1.562,1.562,4.094,0,5.656C478.045,163.604,477.021,163.995,475.998,163.995z"/></g></g></g><g><g><g><path d="M475.998,163.995c-1.023,0-2.047-0.391-2.828-1.172c-1.562-1.562-1.562-4.094,0-5.656l8-8       c1.562-1.562,4.094-1.562,5.656,0s1.562,4.094,0,5.656l-8,8C478.045,163.604,477.021,163.995,475.998,163.995z"/></g></g></g><g><g><g><path d="M99.996,211.994C44.859,211.994,0,167.135,0,111.995c0-55.137,44.859-99.992,99.996-99.992       c55.14,0,100.003,44.855,100.003,99.992c0,2.211-1.789,4-4,4s-4-1.789-4-4c0-50.727-41.273-91.992-92.003-91.992       C49.27,20.003,8,61.269,8,111.995c0,50.73,41.27,91.999,91.996,91.999c5.148,0,10.309-0.43,15.328-1.273       c2.184-0.355,4.242,1.105,4.609,3.281c0.367,2.18-1.102,4.242-3.281,4.609C111.191,211.529,105.59,211.994,99.996,211.994z"/></g></g></g><g><g><g><path d="M99.988,195.994c-46.316,0-84-37.683-84-83.999c0-46.316,37.684-84,84-84c46.316,0,83.999,37.684,83.999,84       c0,2.211-1.789,4-4,4c-2.211,0-4-1.789-4-4c0-41.906-34.094-76-76-76c-41.906,0-76,34.094-76,76       c0,41.906,34.094,75.999,76,75.999c2.211,0,4,1.789,4,4S102.199,195.994,99.988,195.994z"/></g></g></g><g><g><g><path d="M99.988,91.995c-2.211,0-4-1.789-4-4v-40c0-2.211,1.789-4,4-4s4,1.789,4,4v40       C103.988,90.206,102.199,91.995,99.988,91.995z"/></g></g></g><g><g><g><path d="M87.992,95.214c-1.383,0-2.727-0.715-3.469-2l-20-34.641c-1.105-1.914-0.449-4.359,1.465-5.465       c1.902-1.113,4.352-0.453,5.465,1.465l20,34.641c1.105,1.914,0.449,4.359-1.465,5.465       C89.359,95.042,88.672,95.214,87.992,95.214z"/></g></g></g><g><g><g><path d="M79.195,103.995c-0.68,0-1.367-0.172-1.996-0.535l-34.641-20c-1.914-1.105-2.57-3.551-1.465-5.465       c1.105-1.918,3.551-2.574,5.465-1.465l34.641,20c1.914,1.105,2.57,3.551,1.465,5.465       C81.922,103.28,80.578,103.995,79.195,103.995z"/></g></g></g><g><g><g><path d="M75.988,115.995h-40c-2.211,0-4-1.789-4-4s1.789-4,4-4h40c2.211,0,4,1.789,4,4S78.199,115.995,75.988,115.995z"/></g></g></g><g><g><g><path d="M163.988,115.995h-40c-2.211,0-4-1.789-4-4s1.789-4,4-4h40c2.211,0,4,1.789,4,4S166.199,115.995,163.988,115.995z"/></g></g></g><g><g><g><path d="M44.57,147.995c-1.383,0-2.727-0.715-3.469-2c-1.105-1.914-0.449-4.359,1.465-5.465l34.641-20       c1.91-1.109,4.355-0.453,5.465,1.465c1.105,1.914,0.449,4.359-1.465,5.465l-34.641,20       C45.938,147.823,45.25,147.995,44.57,147.995z"/></g></g></g><g><g><g><path d="M120.781,103.995c-1.383,0-2.727-0.715-3.469-2c-1.105-1.914-0.449-4.359,1.465-5.465l34.64-20       c1.902-1.109,4.352-0.453,5.465,1.465c1.105,1.914,0.449,4.359-1.465,5.465l-34.64,20       C122.148,103.823,121.461,103.995,120.781,103.995z"/></g></g></g><g><g><g><path d="M67.992,171.424c-0.68,0-1.367-0.172-1.996-0.535c-1.914-1.105-2.57-3.551-1.465-5.465l20-34.641       c1.105-1.922,3.547-2.57,5.465-1.465c1.914,1.105,2.57,3.551,1.465,5.465l-20,34.641       C70.719,170.709,69.375,171.424,67.992,171.424z"/></g></g></g><g><g><g><path d="M111.992,95.214c-0.68,0-1.367-0.172-1.996-0.535c-1.914-1.105-2.57-3.551-1.465-5.465l20-34.641       c1.105-1.918,3.547-2.578,5.465-1.465c1.914,1.105,2.57,3.551,1.465,5.465l-20,34.641       C114.719,94.499,113.375,95.214,111.992,95.214z"/></g></g></g></g></g><text x="0" y="527" fill="#000000" font-size="5px" font-weight="bold" font-family="'Helvetica Neue', Helvetica, Arial-Unicode, Arial, Sans-serif">Created by lastspark</text><text x="0" y="532" fill="#000000" font-size="5px" font-weight="bold" font-family="'Helvetica Neue', Helvetica, Arial-Unicode, Arial, Sans-serif">from the Noun Project</text></svg>