<svg xmlns="http://www.w3.org/2000/svg" xmlns:xlink="http://www.w3.org/1999/xlink" xml:space="preserve" style="shape-rendering:geometricPrecision;text-rendering:geometricPrecision;image-rendering:optimizeQuality;" viewBox="0 0 3.98912 7.3981875" x="0px" y="0px" fill-rule="evenodd" clip-rule="evenodd"><defs><style type="text/css">
   
    .fil0 {fill:#1F1A17}
   
  </style></defs><g><path class="fil0" d="M2.14129 5.60591c0.566681,0.00982556 1.00494,0.0757979 1.00494,0.15569 0,0.0866665 -0.515727,0.156949 -1.15167,0.156949 -0.635941,0 -1.15167,-0.0702824 -1.15167,-0.156949 0,-0.0798923 0.438261,-0.145865 1.00494,-0.15569l0 -3.26404 -1.84784 -1.98607 1.03021 0 -0.235127 -0.29785c-0.0326458,-0.0405733 0.0144676,-0.0799933 0.04468,-0.0435375l0.269484 0.341388 2.87987 0 -1.84783 1.98607 0 3.26404zm-0.074068 -4.03433c0.0217817,0.026514 -0.0231568,0.0693342 -0.0446724,0.0435375l-0.135141 -0.171865c-0.001788,0.00110583 -0.00357293,0.00222849 -0.00538234,0.00333433 -0.211025,0.128603 -0.440963,0.136371 -0.513493,0.0173538 -0.0671775,-0.110241 0.0242595,-0.290639 0.205818,-0.418845l-0.426077 -0.539739 -0.767757 0 1.61404 1.68695 0 0 1.61404 -1.68695 -2.38129 0 0.399295 0.505834c0.20901,-0.124401 0.434536,-0.130655 0.506234,-0.0130192 0.0656878,0.107807 -0.020266,0.282717 -0.193868,0.41028l0.128254 0.163128zm0.0116854 -0.436305c-0.0202232,0.0418443 -0.0705608,0.0593801 -0.112408,0.0391524 -0.0418382,-0.0202125 -0.0593709,-0.0705547 -0.0391554,-0.112396 0.0202262,-0.0418428 0.0705654,-0.0593816 0.112404,-0.0391585 0.0418443,0.0202247 0.0593816,0.0705562 0.03916,0.112402z"/></g><text x="0" y="20.91855" fill="#000000" font-size="5px" font-weight="bold" font-family="'Helvetica Neue', Helvetica, Arial-Unicode, Arial, Sans-serif">Created by Okan Benn</text><text x="0" y="25.91855" fill="#000000" font-size="5px" font-weight="bold" font-family="'Helvetica Neue', Helvetica, Arial-Unicode, Arial, Sans-serif">from the Noun Project</text></svg>