<svg xmlns="http://www.w3.org/2000/svg" xmlns:xlink="http://www.w3.org/1999/xlink" version="1.1" x="0px" y="0px" viewBox="0 0 100 125" style="enable-background:new 0 0 100 100;" xml:space="preserve"><g><path d="M83.8,46.3c-0.5-1.3-1.1-2.6-1.7-3.8c-1.5-3.3-3-6.4-3.2-9.9l-1-18.7c0.3-0.1,0.6-0.2,0.9-0.5c0.3-0.3,0.4-0.8,0.4-1.2   l-0.7-4.7c-0.1-0.7-0.7-1.3-1.5-1.3h-8.9c-0.7,0-1.4,0.6-1.5,1.3L66,12.2c-0.1,0.4,0.1,0.9,0.4,1.2c0.2,0.2,0.4,0.4,0.7,0.5   l-1,18.8c-0.2,3.4-1.6,6.6-3.2,9.9c-0.4,0.8-0.7,1.5-1.1,2.3c-0.5-1.1-0.9-2.1-1.4-3.2c-1.7-3.7-3.3-7.2-3.6-11.1L55.7,9.3   c0.4,0,0.8-0.2,1-0.5c0.3-0.3,0.4-0.8,0.4-1.2l-0.7-5.3c-0.1-0.7-0.7-1.3-1.5-1.3h-10c-0.7,0-1.4,0.6-1.5,1.3l-0.7,5.3   c-0.1,0.4,0.1,0.9,0.4,1.2c0.2,0.3,0.5,0.4,0.9,0.5l-1.1,21.2c-0.2,3.9-1.8,7.4-3.6,11.1c-0.5,1-1,2.1-1.4,3.2   c-0.3-0.8-0.7-1.6-1.1-2.3c-1.5-3.3-3-6.4-3.2-9.9l-1-18.7c0.3-0.1,0.6-0.2,0.9-0.5c0.3-0.3,0.4-0.8,0.4-1.2l-0.7-4.7   c-0.1-0.7-0.7-1.3-1.5-1.3h-8.9c-0.7,0-1.4,0.6-1.5,1.3l-0.7,4.7c-0.1,0.4,0.1,0.9,0.4,1.2c0.2,0.2,0.4,0.4,0.7,0.5l-1,18.8   c-0.2,3.4-1.6,6.6-3.2,9.9c-0.6,1.2-1.2,2.5-1.7,3.8C15.3,47.8,15,49.3,15,51v37.8c0,2.8,2.2,5,5,5h14.3c0.7,0,1.4-0.2,2-0.4v0.1   c0,3,2.4,5.4,5.4,5.4h16.1c3,0,5.4-2.4,5.4-5.4v-0.1c0.6,0.3,1.3,0.4,2,0.4h14.3c2.8,0,5-2.2,5-5V51C84.7,49.3,84.4,47.8,83.8,46.3   z M81.7,80.6c-3.2-0.8-5.6-3.7-5.6-7.2v-7.2c0-3.5,2.4-6.4,5.6-7.2V80.6z M70.1,12.7h4.8l0.4,7.2h-5.5L70.1,12.7z M75.7,9.2   l0.2,1.5h-6.7l0.2-1.5H75.7z M63.3,51c0-1.2,0.2-2.4,0.7-3.6c0.5-1.2,1.1-2.5,1.6-3.7c1.6-3.4,3.2-6.9,3.4-11l0.6-10.8h5.7   l0.6,10.8c0.2,4,1.8,7.6,3.4,11c0.6,1.2,1.1,2.4,1.6,3.7c0.5,1.1,0.7,2.3,0.7,3.6v5.9c-4.3,0.9-7.6,4.7-7.6,9.3v7.2   c0,4.6,3.3,8.4,7.6,9.3v4.7H63.3V51.1V51z M47,8.3h5.7l0.5,8.7h-6.6L47,8.3z M53.6,4.1l0.3,2.3h-8l0.3-2.3H53.6z M42,42.9   c1.8-3.8,3.6-7.8,3.8-12.2L46.4,19h6.8l0.6,11.6c0.2,4.5,2.1,8.4,3.8,12.2c0.6,1.3,1.3,2.7,1.8,4.1c0.5,1.3,0.8,2.6,0.8,4.1v37.7   v3.7H39.4v-3.7V51.1c0-1.4,0.3-2.8,0.8-4.1C40.7,45.6,41.3,44.3,42,42.9z M24.8,12.7h4.8l0.4,7.2h-5.5L24.8,12.7z M30.4,9.2   l0.2,1.5h-6.7l0.2-1.5H30.4z M18.7,47.4c0.5-1.2,1.1-2.5,1.6-3.7c1.6-3.4,3.2-6.9,3.4-11l0.6-10.8h5.7l0.6,10.8   c0.2,4,1.8,7.6,3.4,11c0.6,1.2,1.1,2.4,1.6,3.7c0.5,1.1,0.7,2.3,0.7,3.6v0.1v36.3H18v-4.6c4.5-0.7,8-4.6,8-9.3v-7.2   c0-4.7-3.5-8.6-8-9.3V51C18,49.7,18.2,48.5,18.7,47.4z M18,58.9c3.4,0.7,6,3.7,6,7.3v7.2c0,3.6-2.6,6.6-6,7.3V58.9z M34.4,90.8H20   c-0.9,0-1.7-0.6-1.9-1.4h18.2C36,90.2,35.3,90.8,34.4,90.8z M57.9,95.9H41.8c-1,0-1.8-0.6-2.2-1.4h20.5   C59.7,95.3,58.9,95.9,57.9,95.9z M79.7,90.8H65.3c-0.9,0-1.7-0.6-1.9-1.4h18.2C81.3,90.2,80.6,90.8,79.7,90.8z"/><path d="M54.8,48.5v8.2c0,0.6,0.4,1,1,1s1-0.4,1-1v-8.2c0-1.5-0.3-2.9-0.8-4.3c-0.2-0.5-0.8-0.8-1.3-0.6c-0.5,0.2-0.8,0.8-0.6,1.3   C54.6,46.1,54.8,47.3,54.8,48.5z"/><path d="M49.8,85.8c5.2,0,9.5-4.2,9.5-9.5v-7.2c0-5.2-4.2-9.5-9.5-9.5c-5.2,0-9.5,4.2-9.5,9.5v7.2C40.4,81.6,44.6,85.8,49.8,85.8z    M42.4,69.1c0-4.1,3.3-7.5,7.5-7.5c4.1,0,7.5,3.3,7.5,7.5v7.2c0,4.1-3.3,7.5-7.5,7.5c-4.1,0-7.5-3.3-7.5-7.5V69.1z"/></g><text x="0" y="115" fill="#000000" font-size="5px" font-weight="bold" font-family="'Helvetica Neue', Helvetica, Arial-Unicode, Arial, Sans-serif">Created by Dilla Chee</text><text x="0" y="120" fill="#000000" font-size="5px" font-weight="bold" font-family="'Helvetica Neue', Helvetica, Arial-Unicode, Arial, Sans-serif">from the Noun Project</text></svg>