<svg xmlns="http://www.w3.org/2000/svg" xmlns:xlink="http://www.w3.org/1999/xlink" version="1.1" x="0px" y="0px" viewBox="0 0 512 640" enable-background="new 0 0 512 512" xml:space="preserve"><g><path d="M287.075,280.581l7.072,7.071c8.376-8.377,8.456-21.928,0.178-30.205l-15.85-15.849l-7.07,7.071l15.849,15.848   C291.634,268.896,291.553,276.104,287.075,280.581z"/><path d="M132.08,117.215v224.963c0,29.008,23.6,52.607,52.607,52.607h142.624c29.009,0,52.608-23.6,52.608-52.607V117.215H132.08z    M327.312,384.785H184.688c-13.759,0-26.009-6.563-33.804-16.714h210.232C353.32,378.223,341.071,384.785,327.312,384.785z    M369.92,342.178c0,5.617-1.103,10.979-3.087,15.894H145.167c-1.984-4.915-3.087-10.276-3.087-15.894V236.369   c4.381,2.1,8.361,4.486,12.486,6.973c10.349,6.237,20.989,12.645,38.815,14.775c-6.729,11.681-5.112,26.894,4.864,36.87   l35.586,35.586c5.958,5.957,13.783,8.936,21.608,8.936c7.826,0,15.652-2.979,21.609-8.936l36.703-36.704   c11.916-11.915,11.916-31.303,0-43.218l-20.767-20.767c3.787-0.487,7.937-0.759,12.559-0.759c17.646,0,28.518,3.918,38.015,8.973   v95.577h10v-89.792c5.025,3.008,10.237,6.06,16.36,8.619V342.178z M258.565,243.277c6.993-4.196,13.769-8.255,22.73-10.943   l25.387,25.386c8.016,8.017,8.016,21.061,0,29.076L269.979,323.5c-8.017,8.017-21.059,8.018-29.076,0l-35.586-35.586   c-8.016-8.014-8.017-21.053-0.005-29.07c0.376,0.004,0.746,0.012,1.128,0.012C232.602,258.855,245.801,250.936,258.565,243.277z    M215.702,248.454l26.318-26.319c4.008-4.008,9.272-6.012,14.538-6.012c5.265,0,10.529,2.004,14.538,6.012l2.301,2.301   c-7.669,2.887-13.874,6.605-19.977,10.266C243.011,240.948,233.089,246.893,215.702,248.454z M369.92,241.53   c-4.248-2.057-8.145-4.382-12.182-6.802c-1.382-0.829-2.771-1.66-4.179-2.484v-39.716h-10v34.381   c-9.502-4.442-21.033-7.785-38.015-7.785c-8.227,0-15.169,0.784-21.222,2.096l-6.156-6.156c-11.914-11.915-31.303-11.914-43.218,0   l-33.668,33.669c-19.932-0.934-30.462-7.272-41.552-13.956c-5.399-3.254-10.964-6.6-17.649-9.357v-98.205h227.84V241.53z"/><rect x="343.56" y="160.641" width="10" height="18.219"/></g><text x="0" y="527" fill="#000000" font-size="5px" font-weight="bold" font-family="'Helvetica Neue', Helvetica, Arial-Unicode, Arial, Sans-serif">Created by Chanut is Industries</text><text x="0" y="532" fill="#000000" font-size="5px" font-weight="bold" font-family="'Helvetica Neue', Helvetica, Arial-Unicode, Arial, Sans-serif">from the Noun Project</text></svg>