<?xml version="1.0" encoding="utf-8"?>
<!-- Generator: Adobe Illustrator 21.0.0, SVG Export Plug-In . SVG Version: 6.00 Build 0)  -->
<svg version="1.1" id="Layer_1" xmlns="http://www.w3.org/2000/svg" xmlns:xlink="http://www.w3.org/1999/xlink" x="0px" y="0px"
	 viewBox="0 0 36 36" style="enable-background:new 0 0 36 36;" xml:space="preserve">
<style type="text/css">
	.st0{fill:none;}
	.st1{stroke:#000000;stroke-miterlimit:10;}
</style>
<g>
	<path d="M24.5,4.5c-0.1-0.2-0.1-0.4-0.2-0.7c0.1-0.1,0.2-0.2,0.3-0.4l0.5-0.8L25.6,2l0.2-0.4c0.2,0,0.4-0.1,0.7-0.1
		c0.1,0.2,0.1,0.4,0.2,0.7l-0.2,0.4l-0.5,0.8L25.4,4c-0.1,0.1-0.2,0.2-0.2,0.4C25,4.4,24.8,4.5,24.5,4.5z"/>
</g>
<g>
	<path d="M10.5,1.5c0.3,0,0.5,0.1,0.7,0.1c0.1,0.1,0.2,0.3,0.2,0.4l0.5,0.8l0.5,0.8l0.2,0.4c0,0.2-0.1,0.4-0.2,0.7
		c-0.3,0-0.5-0.1-0.7-0.1L11.6,4l-0.5-0.8l-0.5-0.8c-0.1-0.1-0.2-0.3-0.3-0.4C10.4,1.9,10.4,1.7,10.5,1.5z"/>
</g>
<g>
	<path d="M10.5,1.5c0.7-0.2,1.3-0.4,2-0.5l2,0h4h4h2c0.7,0.2,1.3,0.3,2,0.5c-0.7,0.2-1.3,0.3-2,0.5h-2h-4h-4l-2,0
		C11.8,1.9,11.2,1.7,10.5,1.5z"/>
</g>
<line class="st0" x1="18.3" y1="35.1" x2="18.3" y2="16.8"/>
<g>
	<path d="M18.5,29.5c-0.4-2.1-0.5-4.2-0.6-6.3c0-2.1,0-4.2,0.4-6.4c0.4,2.1,0.6,4.2,0.6,6.3C18.9,25.3,18.9,27.4,18.5,29.5z"/>
</g>
<g>
	<line x1="18.5" y1="16.5" x2="27.5" y2="13.5"/>
	<path d="M18.5,16.5c0.3-0.3,0.6-0.6,1-0.9l1.1-0.4l2.2-0.8l2.2-0.8l1.1-0.4c0.4,0,0.8,0,1.3,0.1c-0.3,0.3-0.6,0.6-1,0.8l-1.1,0.4
		l-2.2,0.8l-2.2,0.8l-1.1,0.4C19.4,16.6,18.9,16.6,18.5,16.5z"/>
</g>
<g>
	<line x1="9.5" y1="13.5" x2="18.5" y2="16.5"/>
	<path d="M9.5,13.5c0.4-0.1,0.9-0.1,1.3-0.1l1.1,0.4l2.3,0.7l2.3,0.7l1.1,0.4c0.3,0.3,0.7,0.5,1,0.8c-0.4,0.1-0.9,0.1-1.3,0.1
		l-1.1-0.4l-2.3-0.7l-2.3-0.7l-1.1-0.4C10.1,14.1,9.8,13.8,9.5,13.5z"/>
</g>
<g>
	<line x1="9.5" y1="13.5" x2="12.5" y2="4.5"/>
	<path d="M9.5,13.5c-0.1-0.4-0.1-0.9-0.1-1.3l0.4-1.1l0.8-2.2l0.8-2.2l0.4-1.1c0.3-0.3,0.5-0.7,0.8-1c0.1,0.4,0.1,0.9,0.1,1.3
		l-0.4,1.1l-0.8,2.2l-0.8,2.2l-0.4,1.1C10.1,12.9,9.8,13.2,9.5,13.5z"/>
</g>
<g>
	<line x1="27.5" y1="13.5" x2="24.5" y2="4.5"/>
	<path d="M27.5,13.5c-0.3-0.3-0.6-0.6-0.9-1l-0.4-1.1l-0.7-2.3l-0.7-2.3l-0.4-1.1c0-0.4,0-0.8,0.1-1.3c0.3,0.3,0.6,0.6,0.8,1
		l0.4,1.1l0.7,2.3l0.7,2.3l0.4,1.1C27.6,12.6,27.6,13.1,27.5,13.5z"/>
</g>
<g>
	<path d="M26.5,29.5c0,0.8-0.7,1.3-1.4,1.7c-0.7,0.4-1.4,0.6-2.1,0.8c-1.5,0.4-3,0.6-4.5,0.7c-1.5,0.1-3.1,0-4.6-0.4
		c-0.8-0.2-1.5-0.4-2.2-0.8c-0.4-0.2-0.7-0.4-1-0.8c-0.3-0.3-0.6-0.8-0.6-1.3c0-0.6,0.3-1,0.6-1.3c0.3-0.3,0.7-0.6,1-0.8
		c0.7-0.4,1.5-0.6,2.2-0.8c1.5-0.3,3.1-0.4,4.6-0.4c1.5,0.1,3.1,0.3,4.5,0.7c0.7,0.2,1.4,0.5,2.1,0.8C25.8,28.2,26.5,28.7,26.5,29.5
		z M26.5,29.5c0-0.8-0.8-1.3-1.4-1.7c-0.7-0.4-1.4-0.6-2.1-0.7c-1.5-0.3-3-0.4-4.5-0.3c-1.5,0.1-3,0.3-4.4,0.7
		c-0.7,0.2-1.4,0.5-2,0.8c-0.6,0.3-1.1,0.8-1.1,1.3c0,0.4,0.5,0.9,1.1,1.3c0.6,0.3,1.3,0.6,2,0.8c1.4,0.4,2.9,0.6,4.4,0.7
		c1.5,0.1,3,0,4.5-0.3c0.7-0.2,1.5-0.4,2.1-0.7C25.7,30.8,26.5,30.3,26.5,29.5z"/>
</g>
<g>
	<path d="M24.3,4.5c0,1.8-2.6,3.2-5.8,3.2h-0.2c-3.2,0-5.8-1.4-5.8-3.2"/>
	<path d="M24.3,4.5c0.2,0.6,0,1.4-0.4,2c-0.5,0.5-1.1,0.8-1.7,1C21,8,19.7,8.2,18.4,8.2c-1.3,0-2.6-0.2-3.8-0.7
		c-0.6-0.2-1.2-0.6-1.7-1c-0.4-0.6-0.6-1.3-0.4-2c0.2,0.6,0.6,1,1.1,1.2C14,6.1,14.5,6.4,15,6.6c1,0.4,2.2,0.6,3.4,0.6
		c1.2,0,2.3-0.2,3.4-0.6c0.5-0.2,1-0.5,1.4-0.9C23.7,5.5,24.1,5.1,24.3,4.5z"/>
</g>
<path class="st1" d="M26,9.2"/>
</svg>
